<svg xmlns="http://www.w3.org/2000/svg" viewBox="0 0 32 32">
  <rect width="32" height="32" fill="#fff"/>
  <g transform="translate(1.15 30.2) scale(0.0178 -0.0178) translate(-67 0)">
    <path fill="#0b2f5b" d="M1736 0H1174Q1047 195 945 326Q843 457 684 655H632V209Q632 173 645 148Q658 123 697 106Q715 98 750.5 90Q786 82 821 78V0H67V78Q94 80 143.5 84Q193 88 213 96Q249 110 263 135Q277 160 277 198V1204Q277 1239 265 1263Q253 1287 213 1306Q182 1320 138 1329Q94 1338 67 1341V1419H846V1341Q815 1338 771.5 1332.5Q728 1327 697 1317Q658 1304 645 1276Q632 1248 632 1214V736H674Q752 807 856 907Q960 1007 1017 1071Q1097 1160 1134.5 1212Q1172 1264 1172 1302Q1172 1319 1136 1328Q1100 1337 1026 1341V1419H1643V1341Q1531 1329 1455 1300.5Q1379 1272 1304 1205Q1197 1109 1127.5 1038.5Q1058 968 949 858Q1045 741 1180 571.5Q1315 402 1449 241Q1483 200 1527 162.5Q1571 125 1624 102Q1649 91 1681 85Q1713 79 1736 78Z"/>
  </g>
</svg>
